<?xml version="1.0" encoding="UTF-8"?>
<svg version="1.1" xmlns="http://www.w3.org/2000/svg" width="782" height="782">
<path d="M0 0 C258.06 0 516.12 0 782 0 C782 258.06 782 516.12 782 782 C523.94 782 265.88 782 0 782 C0 523.94 0 265.88 0 0 Z " fill="#09AAA5" transform="translate(0,0)"/>
<path d="M0 0 C2.01858648 -0.00271492 4.03717197 -0.00627865 6.05575562 -0.01062012 C11.50412416 -0.01968737 16.9524164 -0.01622319 22.40078616 -0.00986195 C28.12372453 -0.0047718 33.84665669 -0.00950181 39.56959534 -0.01263428 C49.17840742 -0.01626546 58.78718869 -0.01149741 68.39599609 -0.00195312 C79.47671621 0.00892667 90.55736269 0.00540585 101.63808101 -0.00560594 C111.18073987 -0.01470671 120.72337668 -0.01595038 130.26603848 -0.0107286 C135.95269003 -0.00762381 141.63930706 -0.00715825 147.32595634 -0.01380157 C152.67520309 -0.019615 158.02435571 -0.01550557 163.37359238 -0.00401306 C165.32697837 -0.0013876 167.28037241 -0.00209501 169.23375511 -0.00653839 C198.18834801 -0.06628644 198.18834801 -0.06628644 209.05688477 5.88378906 C209.7271167 6.23787842 210.39734863 6.59196777 211.08789062 6.95678711 C224.4755486 14.28051862 231.35552 24.89939573 236.79907227 38.92285156 C238.77427621 45.89319938 238.89277027 53.05905441 238.88482666 60.26397705 C238.88928334 61.55419757 238.88928334 61.55419757 238.89383006 62.87048316 C238.90244242 65.72811868 238.90401892 68.58571195 238.90551758 71.44335938 C238.91015097 73.50238635 238.91517633 75.56141248 238.92056274 77.62043762 C238.93363675 83.19704566 238.94012167 88.77364169 238.9445734 94.35026264 C238.94751164 97.83913902 238.9516178 101.32801216 238.95607758 104.8168869 C238.96973806 115.74708612 238.97941234 126.67727789 238.98327947 137.60748506 C238.98775966 150.19880492 239.00531196 162.79001621 239.03428006 175.38130307 C239.05593164 185.13277699 239.06598557 194.88422042 239.06732059 204.63571811 C239.06836592 210.45153663 239.07421625 216.26725287 239.0921402 222.08304596 C239.10868152 227.55619311 239.11074703 233.02916174 239.10200119 238.50232506 C239.10123411 240.50289833 239.10552972 242.50348145 239.11545944 244.50403023 C239.20189764 263.01464049 237.33810513 281.29534881 223.82250977 295.45019531 C207.21774522 309.90133438 190.02421134 310.56374365 169.00390625 310.51757812 C166.9214872 310.52029219 164.83906912 310.52385546 162.75665283 310.52819824 C157.13074704 310.53727443 151.50491505 310.53379788 145.87900805 310.52744007 C139.97581972 310.52235598 134.07263745 310.52707814 128.16944885 310.5302124 C118.25960157 310.53384475 108.34978415 310.52907184 98.43994141 310.51953125 C87.00075177 310.50864512 75.56163343 310.5121764 64.12244552 310.52318406 C54.28006871 310.53227418 44.43771329 310.53353386 34.59533364 310.52830672 C28.72599848 310.5251969 22.85669679 310.52475054 16.98736382 310.5313797 C11.46906081 310.53717775 5.95084932 310.53311135 0.43255615 310.52159119 C-1.58659145 310.51895786 -3.60574682 310.51968686 -5.62489128 310.52411652 C-25.01663787 310.56272069 -40.97658075 308.80690999 -55.88061523 295.13378906 C-71.35816124 278.9003629 -71.56478263 258.11059618 -71.49853516 237.11743164 C-71.49961028 235.12338702 -71.50155236 233.12934271 -71.50428772 231.13529968 C-71.50910157 225.75949715 -71.50152437 220.38377868 -71.49133468 215.00798631 C-71.48249825 209.36239623 -71.48431269 203.71680835 -71.48469543 198.07121277 C-71.48376138 188.59702157 -71.4751116 179.12286256 -71.46142578 169.64868164 C-71.44568947 158.71501953 -71.44042832 147.78139259 -71.44116133 136.84771997 C-71.44183813 125.17349784 -71.43489132 113.49928916 -71.42571473 101.8250711 C-71.4235896 98.47467163 -71.42287441 95.12427436 -71.42247581 91.77387428 C-71.42146707 86.50015679 -71.41532724 81.22646852 -71.40530968 75.9527607 C-71.40240357 74.02391489 -71.40115545 72.09506571 -71.40173721 70.1662178 C-71.40558678 49.62294716 -70.91091054 31.15210755 -55.75561523 15.38378906 C-54.60869516 14.32041946 -53.44273469 13.27708566 -52.25561523 12.25878906 C-51.73612305 11.81019531 -51.21663086 11.36160156 -50.68139648 10.89941406 C-36.03361117 -0.59182671 -17.6172448 -0.04002866 0 0 Z " fill="#FCFBF5" transform="translate(304.255615234375,135.7412109375)"/>
<path d="M0 0 C0.73426208 -0.00861557 1.46852417 -0.01723114 2.22503662 -0.02610779 C4.63069794 -0.04864819 7.03518349 -0.0420539 9.44091797 -0.03295898 C11.12287744 -0.03819839 12.80483396 -0.04447603 14.48678589 -0.05174255 C18.00207404 -0.06212348 21.51695675 -0.05761647 25.03222656 -0.04296875 C29.532831 -0.02574809 34.03216263 -0.04932765 38.5326252 -0.08445835 C42.00198799 -0.10643022 45.47104576 -0.10499209 48.94045639 -0.09669304 C50.5998258 -0.09587409 52.25921772 -0.10272679 53.91852188 -0.11746407 C56.23814318 -0.13491591 58.55547042 -0.12036822 60.875 -0.09765625 C62.19291534 -0.09669449 63.51083069 -0.09573273 64.86868286 -0.09474182 C69.15170353 0.68752519 70.60382532 2.20060737 73.30810547 5.53344727 C74.64689048 8.21101729 74.43586155 10.2591077 74.43940735 13.25852966 C74.44341553 14.47699585 74.44742371 15.69546204 74.45155334 16.95085144 C74.45107823 18.30838015 74.45054211 19.66590884 74.44995117 21.0234375 C74.45298192 22.44741931 74.45650314 23.87140015 74.46047974 25.29537964 C74.46837488 28.36579433 74.47351593 31.43619737 74.4767704 34.50662041 C74.48267257 39.3593541 74.49920474 44.21201416 74.51811218 49.06471252 C74.52444967 50.72484107 74.5307753 52.38496967 74.53708935 54.0450983 C74.54025516 54.87652887 74.54342097 55.70795943 74.54668272 56.56458485 C74.58879477 67.86514642 74.62174638 79.16567377 74.6340332 90.46630859 C74.6424022 98.08521144 74.66484891 105.7039322 74.70338887 113.32274395 C74.72318786 117.35656247 74.73554148 121.39010857 74.73055458 125.42397881 C74.7259225 129.21702683 74.73963352 133.00955792 74.76756668 136.80250168 C74.77450273 138.19608806 74.77457915 139.58972763 74.76736641 140.98331261 C74.75852724 142.88267198 74.77646361 144.78210025 74.79585266 146.68138123 C74.79824101 147.74529807 74.80062937 148.80921492 74.8030901 149.90537167 C75.08276897 152.62078218 75.08276897 152.62078218 77.03217697 154.37638378 C79.65576495 155.71019451 81.30115839 155.9049606 84.23521423 155.89852905 C85.22635727 155.9038414 86.21750031 155.90915375 87.23867798 155.91462708 C88.3198288 155.90533676 89.40097961 155.89604645 90.51489258 155.88647461 C92.23010353 155.88971489 92.23010353 155.88971489 93.97996521 155.89302063 C96.46374989 155.89610955 98.94754981 155.89249603 101.43131828 155.88300705 C105.36075827 155.86929646 109.28969167 155.87568997 113.21913147 155.8878479 C123.68577553 155.9179549 134.15236607 155.91650724 144.61903149 155.89759505 C152.15686403 155.88407537 159.69420988 155.89318504 167.23199654 155.92369461 C169.83752771 155.92914404 172.44309675 155.92504888 175.04859734 155.91129684 C178.69012975 155.89229996 182.33041367 155.90361825 185.97192383 155.92163086 C187.05105042 155.90829208 188.130177 155.89495331 189.24200439 155.88121033 C196.56297905 155.9618766 196.56297905 155.9618766 200.45411682 158.94668579 C203.18694057 162.75963427 203.4453505 164.69011113 203.50097656 169.35668945 C203.51703949 170.57845886 203.53310242 171.80022827 203.5496521 173.059021 C203.56114047 174.39944767 203.57174886 175.73988214 203.58154297 177.08032227 C203.58686665 177.75501808 203.59219032 178.4297139 203.59767532 179.12485504 C203.62440391 182.69788985 203.64377733 186.2708898 203.65820312 189.84399414 C203.6715296 192.79678415 203.69935639 195.74888096 203.74023438 198.70141602 C203.78963965 202.26996956 203.81433375 205.8378955 203.82143021 209.40677643 C203.8313786 211.42202675 203.86560528 213.43711013 203.90023804 215.4520874 C203.87666657 225.66111257 203.87666657 225.66111257 200.96289062 229.35083008 C196.58760715 232.94794561 192.644281 232.67988435 187.23635864 232.67388916 C186.40427852 232.67686028 185.57219839 232.6798314 184.71490371 232.68289256 C181.91669655 232.69158915 179.11853212 232.69308861 176.3203125 232.69458008 C174.31815499 232.69920753 172.31599837 232.70423209 170.31384277 232.70962524 C164.86757774 232.7227572 159.42132503 232.72919561 153.97504663 232.7336359 C150.57437505 232.73656498 147.17370684 232.74066945 143.77303696 232.74514008 C133.13863424 232.7588163 122.50423925 232.76848269 111.86982834 232.77234197 C99.58342979 232.77682498 87.29714235 232.79438368 75.01077759 232.82334256 C65.52026933 232.84493726 56.02979237 232.85504504 46.53925979 232.85638309 C40.86780585 232.85743258 35.19645636 232.86337126 29.52502823 232.8812027 C24.19151585 232.89764541 18.85818685 232.89985738 13.5246582 232.89106369 C11.56588119 232.89029131 9.60709448 232.89466238 7.64834213 232.90452194 C4.97661452 232.91718292 2.30554218 232.91139664 -0.36618042 232.90093994 C-1.14332331 232.90899635 -1.92046619 232.91705275 -2.72115886 232.92535329 C-8.36248497 232.87362859 -11.39340498 231.65657707 -15.48100567 227.88083363 C-17.30369009 224.34744202 -17.10120228 220.85882003 -17.06611633 216.9752655 C-17.07009074 216.10290656 -17.07406515 215.23054762 -17.07815999 214.33175355 C-17.08779914 211.40297035 -17.07595491 208.47466824 -17.06420898 205.54589844 C-17.06663647 203.44831664 -17.07035536 201.35073601 -17.07527161 199.25315857 C-17.08469191 193.55056639 -17.07524459 187.84814552 -17.06193948 182.1455667 C-17.05063523 176.18040292 -17.05473181 170.21524771 -17.0566864 164.25007629 C-17.05756991 154.22853798 -17.04647887 144.20706724 -17.02807617 134.18554688 C-17.00692502 122.60102348 -17.00339468 111.01659921 -17.00963813 99.43206042 C-17.01533517 88.29095475 -17.00968098 77.14988398 -16.99846458 66.00878334 C-16.99382135 61.26692369 -16.99294359 56.52508541 -16.99505043 51.78322411 C-16.99693557 46.19608698 -16.98881194 40.60905058 -16.97299004 35.02193642 C-16.96875088 32.9720921 -16.96789415 30.92223755 -16.97068024 28.87239075 C-16.97390826 26.07234364 -16.9648043 23.27259626 -16.95259094 20.47257996 C-16.95637027 19.66303539 -16.96014959 18.85349082 -16.96404344 18.0194146 C-16.92707835 13.22198933 -16.42568335 9.07506493 -14.69189453 4.53344727 C-9.78501866 0.78155485 -6.23736872 0.02930097 0 0 Z " fill="#09A9A5" transform="translate(295.69189453125,174.466552734375)"/>
<path d="M0 0 C0.90473053 -0.0033284 1.80946106 -0.0066568 2.74160767 -0.01008606 C4.66676321 -0.01516396 6.59192761 -0.01749412 8.51708984 -0.01733398 C11.42951604 -0.01949632 14.3415484 -0.03757486 17.25390625 -0.05664062 C43.60630611 -0.14038059 43.60630611 -0.14038059 53.1015625 8.16796875 C58.0624618 14.27369096 59.79165051 20.35675978 59.1015625 28.16796875 C58.12052997 35.51880404 54.99170341 39.72740531 49.2890625 44.54296875 C48.5671875 45.07921875 47.8453125 45.61546875 47.1015625 46.16796875 C47.69324219 46.50828125 48.28492188 46.84859375 48.89453125 47.19921875 C54.47027734 50.61925224 59.15872883 53.7011081 61.1015625 60.16796875 C62.26460382 67.97889244 62.81737742 76.68703024 58.4140625 83.54296875 C50.8712248 92.56617647 42.55392767 94.72037059 31.24386597 95.980896 C24.96310879 96.52935169 18.64667319 96.46109914 12.34716797 96.42871094 C9.81324319 96.41780381 7.27999967 96.42876832 4.74609375 96.44140625 C3.13020677 96.44008762 1.51432022 96.43753139 -0.1015625 96.43359375 C-0.856651 96.43764221 -1.6117395 96.44169067 -2.38970947 96.44586182 C-7.66839769 96.39800856 -7.66839769 96.39800856 -9.8984375 94.16796875 C-10.0920073 91.2206974 -10.16060165 88.36771771 -10.14135742 85.41967773 C-10.14325577 84.51390991 -10.14515411 83.60814209 -10.14710999 82.67492676 C-10.1508246 79.67121821 -10.14010458 76.66774968 -10.12890625 73.6640625 C-10.12771482 71.58423389 -10.12726121 69.50440474 -10.1275177 67.42457581 C-10.1259517 63.06239461 -10.11765251 58.70029535 -10.10424805 54.33813477 C-10.08724752 48.73325362 -10.08343393 43.12846253 -10.08419323 37.52355862 C-10.08392194 33.22832878 -10.07844759 28.93311883 -10.07119179 24.63789558 C-10.06799915 22.57052829 -10.06603633 20.50315874 -10.06529808 18.43578911 C-10.0631414 15.55277505 -10.05441211 12.66985851 -10.04370117 9.78686523 C-10.04415436 8.92398392 -10.04460754 8.0611026 -10.04507446 7.17207336 C-9.99913835 -1.23971209 -7.59803644 0.00961887 0 0 Z " fill="#FCFBF5" transform="translate(347.8984375,504.83203125)"/>
<path d="M0 0 C2.62527189 -0.05382106 5.24944713 -0.09358313 7.875 -0.125 C8.62136719 -0.14175781 9.36773438 -0.15851563 10.13671875 -0.17578125 C12.09194461 -0.1933959 14.04742021 -0.10320189 16 0 C18.63022088 2.63022088 18.25415493 4.53601881 18.29327393 8.11741638 C18.29236755 8.97513138 18.29146118 9.83284637 18.29052734 10.71655273 C18.29724457 11.61910797 18.30396179 12.52166321 18.31088257 13.4515686 C18.32993554 16.44563244 18.33379035 19.43947301 18.3359375 22.43359375 C18.34236008 24.50863234 18.34908802 26.58367001 18.35610962 28.65870667 C18.36810047 33.01248271 18.37178856 37.3661793 18.37060547 41.7199707 C18.37040212 47.30690565 18.39771334 52.89333285 18.43214989 58.48014736 C18.45435459 62.76689508 18.458445 67.05351933 18.45738602 71.34031868 C18.45975134 73.40047011 18.46862686 75.46062448 18.48405075 77.52071953 C18.503582 80.39886215 18.49792366 83.27589335 18.48583984 86.15405273 C18.49707886 87.0097435 18.50831787 87.86543427 18.51989746 88.74705505 C18.45832232 94.49978429 18.45832232 94.49978429 16.1378479 97.03236389 C13.42877902 98.25854695 11.40365834 98.33071179 8.4375 98.25 C7.48746094 98.23453125 6.53742187 98.2190625 5.55859375 98.203125 C3 98 3 98 0 97 C-1.1875 93.9375 -1.1875 93.9375 -2 91 C-2.825 91.763125 -3.65 92.52625 -4.5 93.3125 C-10.70770401 98.39415538 -17.01298749 99.64714792 -24.97265625 99.40625 C-32.5722517 98.38643332 -38.74640711 94.4568739 -43.4609375 88.46875 C-50.54324373 77.1082994 -51.57068935 64.9519907 -49.5234375 51.98046875 C-47.14692039 42.66051308 -41.13165059 35.91972695 -33 31 C-26.42280036 27.72262407 -17.35812311 27.69705598 -10.34765625 29.79296875 C-7.05383099 31.39387824 -4.50242342 33.36944044 -2 36 C-1.96241577 34.47076904 -1.96241577 34.47076904 -1.92407227 32.91064453 C-1.83002996 29.13479646 -1.72980163 25.35913373 -1.62768555 21.58349609 C-1.58432462 19.94812347 -1.54265039 18.31270523 -1.50268555 16.67724609 C-1.44501088 14.32896159 -1.38130871 11.98090696 -1.31640625 9.6328125 C-1.29969376 8.89942657 -1.28298126 8.16604065 -1.26576233 7.41043091 C-1.11387171 2.22774341 -1.11387171 2.22774341 0 0 Z " fill="#F7F9F4" transform="translate(614,503)"/>
<path d="M0 0 C0.69416016 -0.01224609 1.38832031 -0.02449219 2.10351562 -0.03710938 C3.92470901 -0.04239842 5.7453692 0.06580793 7.5625 0.1875 C10.19423249 2.81923249 9.81216082 4.7220516 9.84466553 8.30491638 C9.84218811 9.16263138 9.83971069 10.02034637 9.8371582 10.90405273 C9.84226913 11.80660797 9.84738007 12.70916321 9.85264587 13.6390686 C9.86658635 16.63314378 9.86558175 19.62698991 9.86328125 22.62109375 C9.86716577 24.69613227 9.87149993 26.77116999 9.87626648 28.84620667 C9.88373831 33.19998754 9.88343047 37.55368734 9.87817383 41.9074707 C9.87237834 47.494325 9.88930757 53.08084788 9.9125185 58.66764736 C9.92723106 62.95439097 9.92813092 67.2410543 9.92500877 71.52781868 C9.92552325 73.58795897 9.9307845 75.64810362 9.94082069 77.70821953 C9.95311962 80.58621801 9.94643281 83.46356514 9.93481445 86.34155273 C9.94245819 87.1972435 9.95010193 88.05293427 9.95797729 88.93455505 C9.90598497 94.74395976 9.90598497 94.74395976 8.23076153 96.90716648 C5.61225198 98.91678277 3.23525852 98.54699258 0 98.5 C-1.73443359 98.49419922 -1.73443359 98.49419922 -3.50390625 98.48828125 C-6.4375 98.1875 -6.4375 98.1875 -8.4375 96.1875 C-8.83514263 94.19928687 -9.17525349 92.19805661 -9.4375 90.1875 C-10.241875 91.115625 -11.04625 92.04375 -11.875 93 C-17.1421248 98.19345872 -23.14769187 99.33494838 -30.375 99.6875 C-37.62355685 99.46617002 -43.16191991 97.19732548 -48.5078125 92.28515625 C-57.3066388 82.69480374 -58.92476342 72.60417106 -58.61328125 60.02734375 C-58.10590834 48.94406444 -54.17130915 41.26479569 -45.875 33.6875 C-39.93330583 28.5903858 -32.67560113 28.70876137 -25.22265625 28.796875 C-19.92963773 29.34311014 -15.70017871 31.00170854 -11.4375 34.1875 C-10.7775 35.1775 -10.1175 36.1675 -9.4375 37.1875 C-9.39991577 35.55953491 -9.39991577 35.55953491 -9.36157227 33.89868164 C-9.26766245 29.886184 -9.16740233 25.87386618 -9.06518555 21.86157227 C-9.02177427 20.12235712 -8.98010388 18.38309765 -8.94018555 16.64379883 C-8.88263232 14.14911512 -8.8188958 11.6546559 -8.75390625 9.16015625 C-8.73719376 8.37786148 -8.72048126 7.59556671 -8.70326233 6.78956604 C-8.49728287 -0.65299534 -6.83820906 0.00631414 0 0 Z " fill="#FBFBF5" transform="translate(546.4375,502.8125)"/>
<path d="M0 0 C0.83893799 0.00829834 1.67787598 0.01659668 2.54223633 0.02514648 C8.62454709 0.19174453 13.49990704 0.84123946 18.5625 4.4375 C19.26503906 4.911875 19.96757812 5.38625 20.69140625 5.875 C27.26386517 10.91025398 31.0651351 18.31776868 32.5625 26.4375 C32.65433457 28.49837573 32.69252537 30.56208529 32.6875 32.625 C32.69136719 34.22408203 32.69136719 34.22408203 32.6953125 35.85546875 C32.5625 38.4375 32.5625 38.4375 31.5625 39.4375 C30.08895652 39.53054018 28.61099409 39.55496265 27.13452148 39.55102539 C26.19362167 39.55094986 25.25272186 39.55087433 24.28330994 39.55079651 C23.26040359 39.54563522 22.23749725 39.54047394 21.18359375 39.53515625 C20.14179459 39.5337413 19.09999542 39.53232635 18.02662659 39.53086853 C14.68438906 39.5252508 11.34221743 39.5126953 8 39.5 C5.74023534 39.49498728 3.48046963 39.49042398 1.22070312 39.48632812 C-4.33205391 39.47527561 -9.88477225 39.45852024 -15.4375 39.4375 C-14.99987332 40.87776169 -14.55107367 42.31463124 -14.09765625 43.75 C-13.84894775 44.55050781 -13.60023926 45.35101562 -13.34399414 46.17578125 C-11.79678382 50.03609809 -9.12204179 52.59522911 -5.4375 54.4375 C2.34265274 55.50877696 2.34265274 55.50877696 9.4140625 53.09765625 C10.13722656 52.27587891 10.13722656 52.27587891 10.875 51.4375 C13.46217694 48.61150673 14.58093835 48.43565254 18.5390625 48.0390625 C22.5575766 47.99643988 26.55313268 48.17758903 30.5625 48.4375 C31.51034216 50.9612725 31.72165069 52.05692227 30.6640625 54.5859375 C25.01390781 63.10601204 18.35496751 67.63543239 8.3828125 69.96875 C-1.68028568 71.64128709 -12.15537015 70.69475617 -20.75 64.8125 C-27.68876837 59.03967222 -31.98584758 51.31677395 -33.4375 42.4375 C-34.34354753 30.78472209 -33.70036553 20.51845674 -26.1015625 11.25390625 C-18.57874183 3.04237664 -11.12250817 -0.14163828 0 0 Z " fill="#F9FAF5" transform="translate(181.4375,531.5625)"/>
<path d="M0 0 C1.03415543 -0.00503792 1.03415543 -0.00503792 2.08920288 -0.01017761 C4.37922951 -0.01971403 6.66918324 -0.02163207 8.95922852 -0.02270508 C10.54484589 -0.02591582 12.13046297 -0.02927975 13.71607971 -0.03279114 C17.044288 -0.03878916 20.37247028 -0.04063035 23.70068359 -0.04003906 C27.97266848 -0.03993741 32.24448727 -0.05359007 36.51643276 -0.07081127 C39.79259512 -0.08191113 43.06871708 -0.08395889 46.34489632 -0.08342934 C47.92021317 -0.08461248 49.49553096 -0.08905289 51.07082939 -0.0967617 C53.27129739 -0.10652112 55.47140158 -0.10369983 57.671875 -0.09765625 C58.92572495 -0.09908127 60.17957489 -0.10050629 61.47142029 -0.10197449 C64.40063477 0.14526367 64.40063477 0.14526367 66.40063477 2.14526367 C66.66625977 5.33276367 66.66625977 5.33276367 66.65063477 9.14526367 C66.65836914 11.03245117 66.65836914 11.03245117 66.66625977 12.95776367 C66.40063477 16.14526367 66.40063477 16.14526367 64.40063477 18.14526367 C56.15063477 18.14526367 47.90063477 18.14526367 39.40063477 18.14526367 C39.40063477 43.22526367 39.40063477 68.30526367 39.40063477 94.14526367 C36.2410806 95.72504076 32.86599659 95.32973451 29.40063477 95.33276367 C28.66329102 95.34500977 27.92594727 95.35725586 27.16625977 95.36987305 C25.24293419 95.37513762 23.32009213 95.26729814 21.40063477 95.14526367 C18.97104446 92.71567337 19.1661722 91.45137454 19.15179443 88.13682556 C19.15898499 87.44271072 19.16617554 86.74859589 19.17358398 86.03344727 C19.17329193 85.30163742 19.17299988 84.56982758 19.17269897 83.81584167 C19.17409475 81.39167513 19.18966737 78.96781417 19.20532227 76.54370117 C19.20905152 74.86504281 19.2118989 73.18638227 19.21389771 71.50772095 C19.22154108 67.0853476 19.24119555 62.66310522 19.26330566 58.24078369 C19.28374898 53.72979504 19.29289617 49.21878527 19.30297852 44.70776367 C19.32444082 35.8535394 19.35858521 26.99941242 19.40063477 18.14526367 C18.65378418 18.1557373 17.90693359 18.16621094 17.13745117 18.17700195 C13.76687968 18.21847137 10.39636177 18.24456096 7.02563477 18.27026367 C5.85000977 18.28702148 4.67438477 18.3037793 3.46313477 18.32104492 C1.7809082 18.33071289 1.7809082 18.33071289 0.06469727 18.34057617 C-0.97219238 18.3510498 -2.00908203 18.36152344 -3.07739258 18.37231445 C-5.59936523 18.14526367 -5.59936523 18.14526367 -7.59936523 16.14526367 C-7.77100254 13.58234051 -7.83201081 11.1418051 -7.78686523 8.58276367 C-7.7862207 7.88473633 -7.78557617 7.18670898 -7.78491211 6.4675293 C-7.72438044 -0.46671004 -6.70221974 0.02038819 0 0 Z " fill="#F6F9F3" transform="translate(91.599365234375,504.854736328125)"/>
<path d="M0 0 C0.68964844 -0.020625 1.37929688 -0.04125 2.08984375 -0.0625 C4.09375 -0.078125 4.09375 -0.078125 7.5 0.25 C9.5561054 3.3341581 9.74946324 3.97555455 9.75537109 7.45849609 C9.76233002 8.30302338 9.76928894 9.14755066 9.77645874 10.01766968 C9.77546173 10.92707306 9.77446472 11.83647644 9.7734375 12.7734375 C9.79372744 14.70052663 9.81457824 16.62760992 9.8359375 18.5546875 C9.85853687 21.59184698 9.87500728 24.62877593 9.88085938 27.66601562 C9.89038525 30.59807994 9.92416517 33.52910594 9.9609375 36.4609375 C9.95589203 37.36629242 9.95084656 38.27164734 9.94564819 39.20443726 C10.0104868 43.36380688 10.15178361 45.67485815 12.34619141 49.29931641 C15.78289429 52.41190494 18.96380581 52.53539368 23.50390625 52.46875 C27.22148302 52.06134433 29.45396058 50.22738415 32.10693359 47.74853516 C34.29200053 43.82950693 33.96084124 39.93916594 33.9765625 35.5234375 C33.99214203 34.57941071 34.00772156 33.63538391 34.02377319 32.66275024 C34.0712705 29.65017505 34.09905217 26.63783137 34.125 23.625 C34.16147577 20.60519033 34.2020701 17.5855123 34.24765015 14.56582642 C34.27489956 12.68730359 34.29624092 10.80868419 34.31118774 8.93002319 C34.32658096 7.65827744 34.32658096 7.65827744 34.34228516 6.36083984 C34.34878082 5.61345551 34.35527649 4.86607117 34.36196899 4.09603882 C34.5 2.25 34.5 2.25 35.5 0.25 C38.14590014 0.22315321 40.79153096 0.20323643 43.4375 0.1875 C44.19224609 0.17912109 44.94699219 0.17074219 45.72460938 0.16210938 C47.64994313 0.15347559 49.57535581 0.19775667 51.5 0.25 C53.31415883 2.06415883 52.62770573 4.87445701 52.62939453 7.31445312 C52.63254669 8.61249878 52.63569885 9.91054443 52.63894653 11.2479248 C52.63715675 12.67570021 52.6351058 14.10347531 52.6328125 15.53125 C52.63348558 16.98474138 52.63445564 18.43823264 52.63571167 19.89172363 C52.63718846 22.94166127 52.6350347 25.99156966 52.63037109 29.04150391 C52.6246738 32.95930559 52.62795291 36.87703878 52.63394356 40.79483795 C52.63754969 43.79730754 52.63641035 46.79976077 52.63381577 49.80223083 C52.63314664 51.24718738 52.63397442 52.69214539 52.63629532 54.13710022 C52.63882265 56.15324883 52.63429052 58.16940262 52.62939453 60.18554688 C52.62859894 61.33502808 52.62780334 62.48450928 52.62698364 63.66882324 C52.5 66.25 52.5 66.25 51.5 67.25 C48.98863896 67.34975032 46.51096585 67.38882183 44 67.375 C43.29746094 67.37886719 42.59492188 67.38273438 41.87109375 67.38671875 C36.62661378 67.37661378 36.62661378 67.37661378 35.5 66.25 C35.45919217 64.25041636 35.45745644 62.24954746 35.5 60.25 C34.84 60.25 34.18 60.25 33.5 60.25 C33.25121094 60.86488281 33.00242187 61.47976563 32.74609375 62.11328125 C31.27569389 64.63462521 30.18623547 65.24045123 27.5625 66.4375 C26.87285156 66.76105469 26.18320312 67.08460938 25.47265625 67.41796875 C19.38823903 69.9842675 12.59014934 70.33106641 6.1796875 68.63671875 C-0.48939231 65.6683244 -5.07836045 60.35279869 -8.078125 53.80566406 C-9.99326485 48.55562816 -9.87787115 43.49947154 -9.79296875 37.96875 C-9.78660149 36.38761414 -9.78660149 36.38761414 -9.78010559 34.77453613 C-9.76341405 31.43275595 -9.72577909 28.0915956 -9.6875 24.75 C-9.67244088 22.47396709 -9.65875463 20.19792465 -9.64648438 17.921875 C-9.61354181 12.36437454 -9.56343806 6.80723158 -9.5 1.25 C-6.46569419 -0.2671529 -3.32594035 0.02486684 0 0 Z " fill="#F9FAF5" transform="translate(427.5,532.75)"/>
<path d="M0 0 C2.62527189 -0.05382106 5.24944713 -0.09358313 7.875 -0.125 C8.62136719 -0.14175781 9.36773438 -0.15851562 10.13671875 -0.17578125 C12.09194461 -0.1933959 14.04742021 -0.10320189 16 0 C18.65260143 2.65260143 19.44299976 5.64822272 20.625 9.125 C20.87717285 9.85404541 21.1293457 10.58309082 21.38916016 11.33422852 C22.26766726 13.88674752 23.13457346 16.44301688 24 19 C24.34998047 20.02947754 24.69996094 21.05895508 25.06054688 22.11962891 C26.17052018 25.39053881 27.27418576 28.66349701 28.375 31.9375 C28.73287598 32.99791504 29.09075195 34.05833008 29.45947266 35.15087891 C29.78995605 36.1413623 30.12043945 37.1318457 30.4609375 38.15234375 C30.75790527 39.03913818 31.05487305 39.92593262 31.36083984 40.83959961 C32 43 32 43 32 45 C32.66 45 33.32 45 34 45 C34.26167969 43.71480469 34.52335938 42.42960938 34.79296875 41.10546875 C35.92410905 36.02377876 37.54508426 31.20341962 39.3125 26.3125 C39.77499146 25.01626709 39.77499146 25.01626709 40.24682617 23.69384766 C40.86837531 21.95260671 41.49179543 20.21203236 42.1171875 18.47216797 C42.92632769 16.20630691 43.71767316 13.93538803 44.5 11.66015625 C44.83584106 10.69178833 44.83584106 10.69178833 45.1784668 9.70385742 C45.77327512 7.98814345 46.36525343 6.2714491 46.95703125 4.5546875 C48 2 48 2 50 0 C52.58064129 -0.14497985 55.04943884 -0.18677545 57.625 -0.125 C58.33140625 -0.11597656 59.0378125 -0.10695313 59.765625 -0.09765625 C61.51056098 -0.07407603 63.25532295 -0.03820461 65 0 C66.1259676 3.31805071 65.89753384 5.05729651 64.59375 8.28125 C64.26552246 9.11317871 63.93729492 9.94510742 63.59912109 10.80224609 C63.05505615 12.13763428 63.05505615 12.13763428 62.5 13.5 C61.75017154 15.397478 61.00283393 17.29594194 60.2578125 19.1953125 C59.87786133 20.16114258 59.49791016 21.12697266 59.10644531 22.12207031 C57.42204722 26.50328936 55.89531042 30.93472828 54.375 35.375 C51.96344575 42.37663617 49.33579655 49.22997004 46.53515625 56.0859375 C44.34842279 61.55348343 42.47219397 67.13256958 40.54833984 72.6965332 C33.7857195 92.2142805 33.7857195 92.2142805 32 94 C29.13732433 94.07325168 26.299281 94.09238205 23.4375 94.0625 C22.63119141 94.05798828 21.82488281 94.05347656 20.99414062 94.04882812 C18.99606244 94.03700518 16.99802217 94.01906914 15 94 C15.65362608 87.6313356 17.62385727 82.22950571 20.00390625 76.31640625 C23.18744348 67.89298 20.63218328 61.33013573 17.6875 53.1875 C17.39166016 52.34896484 17.09582031 51.51042969 16.79101562 50.64648438 C15.28976685 46.4280726 13.71393905 42.25326838 12.02734375 38.10546875 C9.36045204 31.50964522 7.11676755 24.77182662 4.82421875 18.0390625 C4.48777344 17.059375 4.15132812 16.0796875 3.8046875 15.0703125 C3.50546387 14.19133301 3.20624023 13.31235352 2.89794922 12.40673828 C2.05938206 10.00696896 2.05938206 10.00696896 0.89501953 7.88623047 C-0.36290859 5.23517955 -0.13136192 2.88996214 0 0 Z " fill="#F9FAF5" transform="translate(639,533)"/>
<path d="M0 0 C0.56847656 0.39703125 1.13695312 0.7940625 1.72265625 1.203125 C2.30144531 1.60015625 2.88023437 1.9971875 3.4765625 2.40625 C6.73253314 4.88549511 9.04509891 7.47521979 10.72265625 11.203125 C10.97265625 13.953125 10.97265625 13.953125 10.72265625 16.203125 C8.51306286 18.41271839 3.4364013 17.6263047 0.38598633 17.67163086 C-2.58582755 17.61492638 -4.77608973 17.52446635 -7.3125 15.8984375 C-8.58984375 14.265625 -8.58984375 14.265625 -10.27734375 11.203125 C-13.47076001 9.60641687 -16.8033414 9.83238167 -20.27734375 10.203125 C-22.85686059 11.13556371 -22.85686059 11.13556371 -24.27734375 13.203125 C-24.94401042 16.203125 -24.94401042 16.203125 -24.27734375 19.203125 C-20.81718414 22.85350281 -16.37780339 23.15693538 -11.65234375 24.015625 C-3.20311037 25.73745455 5.0819929 27.9165235 10.34765625 35.328125 C12.89917442 40.79566393 12.7833763 47.60993584 11.09765625 53.3203125 C7.88189126 59.78055467 1.62935352 63.78787867 -5.02734375 66.078125 C-15.14357631 68.661322 -24.86437224 67.76377599 -34.27734375 63.203125 C-38.37331884 60.34244399 -41.50691598 57.35876666 -44.27734375 53.203125 C-44.46484375 49.578125 -44.46484375 49.578125 -44.27734375 46.203125 C-42.06092299 43.98670424 -37.06259389 44.7212891 -34.01098633 44.66430664 C-30.82386408 44.73111062 -28.68802252 44.92531289 -26.01953125 46.73046875 C-24.58847192 48.48873008 -23.44378423 50.26525376 -22.27734375 52.203125 C-19.0777819 53.80290593 -15.75700521 53.56240171 -12.27734375 53.203125 C-9.239098 52.28291768 -9.239098 52.28291768 -7.27734375 50.203125 C-6.36049745 47.24687233 -6.36049745 47.24687233 -7.27734375 44.203125 C-11.79753694 39.54998496 -17.7589856 39.12353296 -23.9296875 37.91015625 C-31.57117444 36.29625994 -37.43654823 33.08554554 -42.15234375 26.640625 C-44.20570254 20.36647316 -44.51449859 13.87537946 -41.71484375 7.828125 C-31.44923177 -3.22714944 -14.05512711 -7.93569801 0 0 Z " fill="#F9FAF5" transform="translate(265.27734375,534.796875)"/>
<path d="M0 0 C1.12535156 0.00580078 1.12535156 0.00580078 2.2734375 0.01171875 C3.02367187 0.00785156 3.77390625 0.00398437 4.546875 0 C10.14682697 0.01010822 10.14682697 0.01010822 11.2734375 1.13671875 C11.34668918 3.99939442 11.36581955 6.83743775 11.3359375 9.69921875 C11.33142578 10.50552734 11.32691406 11.31183594 11.32226562 12.14257812 C11.31044268 14.14065631 11.29250664 16.13869658 11.2734375 18.13671875 C12.33304687 18.11351562 13.39265625 18.0903125 14.484375 18.06640625 C15.8723888 18.04764931 17.2604102 18.02944903 18.6484375 18.01171875 C19.69644531 17.98658203 19.69644531 17.98658203 20.765625 17.9609375 C22.60241236 17.94327608 24.43945713 18.03368614 26.2734375 18.13671875 C28.2734375 20.13671875 28.2734375 20.13671875 28.5390625 22.66796875 C28.53390625 23.64765625 28.52875 24.62734375 28.5234375 25.63671875 C28.53117187 27.10625 28.53117187 27.10625 28.5390625 28.60546875 C28.2734375 31.13671875 28.2734375 31.13671875 26.2734375 33.13671875 C23.69279621 33.2816986 21.22399866 33.3234942 18.6484375 33.26171875 C17.94203125 33.25269531 17.235625 33.24367188 16.5078125 33.234375 C14.76287652 33.21079478 13.01811455 33.17492336 11.2734375 33.13671875 C11.34228222 37.78202554 11.43023054 42.42642934 11.53588867 47.07104492 C11.56913938 48.65102118 11.59717096 50.23111627 11.61987305 51.8112793 C11.65341766 54.08303454 11.70572977 56.35370078 11.76171875 58.625 C11.76810867 59.33135086 11.7744986 60.03770172 11.78108215 60.76545715 C11.86792109 63.66295287 11.9434152 65.6679136 13.63891602 68.07641602 C16.02000421 69.62101139 18.08806265 69.62082925 20.8984375 69.76171875 C26.19010417 70.05338542 26.19010417 70.05338542 27.2734375 71.13671875 C27.34615491 73.4898543 27.35714618 75.84505543 27.3359375 78.19921875 C27.32691406 79.48957031 27.31789063 80.77992188 27.30859375 82.109375 C27.29699219 83.10839844 27.28539062 84.10742188 27.2734375 85.13671875 C20.18353564 87.50001937 10.05020493 87.35163152 3.0859375 84.51171875 C-1.7665168 81.90456835 -4.9644144 78.42316305 -6.7265625 73.13671875 C-6.81200541 71.80143068 -6.84430875 70.46227987 -6.84008789 69.12426758 C-6.84001236 68.32366409 -6.83993683 67.52306061 -6.83985901 66.69819641 C-6.83469772 65.8387291 -6.82953644 64.97926178 -6.82421875 64.09375 C-6.8228038 63.21015305 -6.82138885 62.32655609 -6.81993103 61.41618347 C-6.81433319 58.59382747 -6.80178111 55.77155078 -6.7890625 52.94921875 C-6.78404722 51.03580844 -6.77948436 49.12239688 -6.77539062 47.20898438 C-6.76436447 42.51819861 -6.74710133 37.82747212 -6.7265625 33.13671875 C-7.43683594 33.14832031 -8.14710938 33.15992188 -8.87890625 33.171875 C-9.79800781 33.18089844 -10.71710938 33.18992187 -11.6640625 33.19921875 C-12.58058594 33.21082031 -13.49710937 33.22242188 -14.44140625 33.234375 C-16.7265625 33.13671875 -16.7265625 33.13671875 -17.7265625 32.13671875 C-17.8254919 29.97191078 -17.8562735 27.8037809 -17.8515625 25.63671875 C-17.85414063 24.45078125 -17.85671875 23.26484375 -17.859375 22.04296875 C-17.7265625 19.13671875 -17.7265625 19.13671875 -16.7265625 18.13671875 C-15.04047284 18.06466364 -13.35155591 18.05285807 -11.6640625 18.07421875 C-10.74496094 18.08324219 -9.82585937 18.09226562 -8.87890625 18.1015625 C-8.16863281 18.11316406 -7.45835937 18.12476563 -6.7265625 18.13671875 C-6.74396484 16.31333984 -6.74396484 16.31333984 -6.76171875 14.453125 C-6.77109528 12.86849111 -6.78019563 11.28385557 -6.7890625 9.69921875 C-6.79744141 8.89677734 -6.80582031 8.09433594 -6.81445312 7.26757812 C-6.8230768 5.22376654 -6.778844 3.17987973 -6.7265625 1.13671875 C-4.90540247 -0.68444128 -2.41984486 0.00436795 0 0 Z " fill="#FCFBF5" transform="translate(298.7265625,514.86328125)"/>
<path d="M0 0 C2.36963011 1.70317164 3.74474669 3.58353407 5.26171875 6.05859375 C11.0051102 15.38963794 18.53390242 19.51614493 28.890625 22.5546875 C38.96469422 24.68143545 49.46360574 22.56338913 58.421875 17.6796875 C62.73791299 14.71038317 65.25974163 11.4040593 67.86328125 6.90625 C69.58775243 4.01435331 71.28785382 2.00182218 74 0 C78.02034924 0.06814151 80.1176825 0.1176825 83 3 C84.11484939 8.07042077 83.29746447 12.19867857 80.5625 16.5625 C71.98054223 28.07194804 60.60610371 34.97038159 46.53515625 37.52734375 C29.18313758 39.84733741 14.40065709 35.37737173 0.36328125 25.0625 C-1.98390508 23.01404648 -3.51702731 21.11543178 -5.1875 18.5 C-5.67605469 17.7471875 -6.16460937 16.994375 -6.66796875 16.21875 C-9.65181843 11.24858396 -10.39116756 8.88570892 -9 3 C-6.75137054 -0.66881649 -4.0613504 -0.58019291 0 0 Z " fill="#0DA9A5" transform="translate(400,274)"/>
<path d="M0 0 C4.89472807 2.35672092 7.31615602 5.32812344 10 10 C12.2323766 16.69712979 11.88495637 24.82133225 9.05859375 31.3125 C6.8513638 34.8310363 3.70135481 37.1493226 0 39 C-4.51297732 39.59125242 -9.00167623 39.97225447 -13.17578125 37.94140625 C-17.5792123 34.46203568 -19.94218698 30.48740503 -21 25 C-21.83805371 17.82416507 -21.34637346 11.91983804 -17 6 C-12.24264408 0.10693577 -7.45096949 -1.42861564 0 0 Z " fill="#0DAAA6" transform="translate(527,547)"/>
<path d="M0 0 C4.74217833 2.07990277 6.45147421 4.25241617 8.37817383 9.00024414 C9.45481908 12.46267101 9.57379855 15.83124396 9.5625 19.4375 C9.5615332 20.18523682 9.56056641 20.93297363 9.55957031 21.70336914 C9.38821377 27.07351883 8.38329489 30.57255945 4.703125 34.65234375 C0.25396645 38.17289352 -3.66135797 38.56017278 -9.23828125 38.43359375 C-12.9937257 37.84398366 -14.99440533 36.58979816 -17.62890625 33.8984375 C-21.8996139 27.98514998 -22.74278632 21.11724348 -22 14 C-20.90142033 8.50710163 -17.9143563 4.86117211 -14 1 C-9.81120412 -1.09439794 -4.56163621 -0.41740462 0 0 Z " fill="#0CA9A5" transform="translate(604,548)"/>
<path d="M0 0 C2.949375 -0.04125 5.89875 -0.0825 8.9375 -0.125 C9.84749756 -0.14320801 10.75749512 -0.16141602 11.69506836 -0.18017578 C18.5340204 -0.22578351 25.14897655 0.15871402 31 3.9375 C34.41065989 7.45474301 34.33817292 11.11945099 34.28515625 15.77734375 C33.85531195 19.127774 32.44879327 20.75527284 30 23 C24.18704851 27.00893206 15.81289767 26.12870909 9.0625 26.0625 C4.5765625 26.0315625 4.5765625 26.0315625 0 26 C0 17.42 0 8.84 0 0 Z " fill="#0BAAA5" transform="translate(356,559)"/>
<path d="M0 0 C3.50625 -0.061875 7.0125 -0.12375 10.625 -0.1875 C11.71893066 -0.21481201 12.81286133 -0.24212402 13.93994141 -0.27026367 C20.41356592 -0.32548722 24.52467709 0.4470027 29.83984375 4.3515625 C31.99690657 7.41648005 31.57840089 10.70716247 31.4921875 14.328125 C30.95235034 17.25866957 30.42961808 18.22868122 28.1875 20.125 C24.1532964 22.49806094 21.48621236 23.12419776 16.89453125 23.09765625 C15.56578979 23.09390991 15.56578979 23.09390991 14.21020508 23.09008789 C13.0889624 23.08098389 11.96771973 23.07187988 10.8125 23.0625 C7.244375 23.041875 3.67625 23.02125 0 23 C0 15.41 0 7.82 0 0 Z " fill="#13ABA7" transform="translate(356,521)"/>
<path d="M0 0 C4.48186822 1.23488855 7.80210116 4.57370075 10.19921875 8.45703125 C11.75261928 12.39915148 11.55997188 16.40277922 11.02734375 20.55859375 C9.33984375 23.93359375 9.33984375 23.93359375 7.02734375 26.55859375 C6.32609375 27.36296875 5.62484375 28.16734375 4.90234375 28.99609375 C0.54014349 31.36685476 -3.26900474 30.89696828 -7.97265625 29.55859375 C-11.69628231 26.7658742 -13.81781128 24.07298774 -14.97265625 19.55859375 C-15.4195377 13.92788754 -15.1929393 10.38901833 -11.97265625 5.55859375 C-8.33882939 1.67124409 -5.50478851 -0.34867182 0 0 Z " fill="#0FAAA6" transform="translate(465.97265625,227.44140625)"/>
<path d="M0 0 C5.1045682 2.50223931 8.0735591 5.71574032 10 11 C10.86183288 17.03283017 9.84273185 20.33707957 6.3515625 25.30078125 C4.67300705 27.41110386 3.46442932 28.84026856 1 30 C-4.00362068 30.54584953 -7.02238851 30.11758738 -11 27 C-15.37260256 22.02009153 -16.35664123 19.13071625 -16.28125 12.609375 C-15.73922585 7.58059537 -13.58584076 4.32867739 -9.6875 1.0625 C-6.16469002 -0.33023883 -3.7643485 -0.46228841 0 0 Z " fill="#0FAAA6" transform="translate(412,228)"/>
<path d="M0 0 C4.37107664 2.26648418 7.00740659 4.461315 9 9 C9 10.65 9 12.3 9 14 C-0.57 14 -10.14 14 -20 14 C-18.8161435 5.71300448 -18.8161435 5.71300448 -15 2 C-9.97998131 -1.50233862 -5.74184726 -1.51263718 0 0 Z " fill="#0FA9A4" transform="translate(187,546)"/>
<path d="M0 0 C3.0525 -0.04125 6.105 -0.0825 9.25 -0.125 C10.20551758 -0.14320801 11.16103516 -0.16141602 12.14550781 -0.18017578 C13.28777832 -0.18766846 13.28777832 -0.18766846 14.453125 -0.1953125 C15.22817383 -0.20578613 16.00322266 -0.21625977 16.80175781 -0.22705078 C19 0 19 0 23 2 C16.07 2 9.14 2 2 2 C2 9.26 2 16.52 2 24 C8.93 24 15.86 24 23 24 C19.31422423 25.84288788 18.27877347 26.24701045 14.453125 26.1953125 C13.69161133 26.19031738 12.93009766 26.18532227 12.14550781 26.18017578 C10.71223145 26.15286377 10.71223145 26.15286377 9.25 26.125 C4.67125 26.063125 4.67125 26.063125 0 26 C0 17.42 0 8.84 0 0 Z " fill="#31AFAA" transform="translate(356,559)"/>
<path d="M0 0 C-0.86625 0.3403125 -0.86625 0.3403125 -1.75 0.6875 C-4.55338976 2.32281069 -6.00442154 4.47226728 -8 7 C-8.66 7 -9.32 7 -10 7 C-8.07091409 1.3611335 -6.01450566 -0.32510841 0 0 Z " fill="#29A9A6" transform="translate(479,274)"/>
<path d="M0 0 C0 3 0 3 -2 5.1875 C-2.66 5.785625 -3.32 6.38375 -4 7 C-4.66 6.67 -5.32 6.34 -6 6 C-2.25 1.125 -2.25 1.125 0 0 Z " fill="#23A9A7" transform="translate(174,547)"/>
</svg>
